%TF.GenerationSoftware,KiCad,Pcbnew,9.0.1*%
%TF.CreationDate,2025-05-03T00:43:43-03:00*%
%TF.ProjectId,MCU-Datalogger,4d43552d-4461-4746-916c-6f676765722e,rev?*%
%TF.SameCoordinates,Original*%
%TF.FileFunction,Soldermask,Top*%
%TF.FilePolarity,Negative*%
%FSLAX46Y46*%
G04 Gerber Fmt 4.6, Leading zero omitted, Abs format (unit mm)*
G04 Created by KiCad (PCBNEW 9.0.1) date 2025-05-03 00:43:43*
%MOMM*%
%LPD*%
G01*
G04 APERTURE LIST*
G04 Aperture macros list*
%AMRoundRect*
0 Rectangle with rounded corners*
0 $1 Rounding radius*
0 $2 $3 $4 $5 $6 $7 $8 $9 X,Y pos of 4 corners*
0 Add a 4 corners polygon primitive as box body*
4,1,4,$2,$3,$4,$5,$6,$7,$8,$9,$2,$3,0*
0 Add four circle primitives for the rounded corners*
1,1,$1+$1,$2,$3*
1,1,$1+$1,$4,$5*
1,1,$1+$1,$6,$7*
1,1,$1+$1,$8,$9*
0 Add four rect primitives between the rounded corners*
20,1,$1+$1,$2,$3,$4,$5,0*
20,1,$1+$1,$4,$5,$6,$7,0*
20,1,$1+$1,$6,$7,$8,$9,0*
20,1,$1+$1,$8,$9,$2,$3,0*%
G04 Aperture macros list end*
%ADD10C,2.100000*%
%ADD11RoundRect,0.250000X-0.250000X-0.475000X0.250000X-0.475000X0.250000X0.475000X-0.250000X0.475000X0*%
%ADD12RoundRect,0.150000X-0.825000X-0.150000X0.825000X-0.150000X0.825000X0.150000X-0.825000X0.150000X0*%
%ADD13R,1.700000X1.700000*%
%ADD14C,1.700000*%
%ADD15R,2.400000X3.500000*%
%ADD16RoundRect,0.250000X-0.262500X-0.450000X0.262500X-0.450000X0.262500X0.450000X-0.262500X0.450000X0*%
%ADD17RoundRect,0.094250X-0.742750X-0.282750X0.742750X-0.282750X0.742750X0.282750X-0.742750X0.282750X0*%
%ADD18RoundRect,0.094250X-0.282750X-0.742750X0.282750X-0.742750X0.282750X0.742750X-0.282750X0.742750X0*%
%ADD19R,3.500000X2.400000*%
%ADD20RoundRect,0.099250X-0.987750X-0.297750X0.987750X-0.297750X0.987750X0.297750X-0.987750X0.297750X0*%
%ADD21RoundRect,0.243750X-0.243750X-0.456250X0.243750X-0.456250X0.243750X0.456250X-0.243750X0.456250X0*%
G04 APERTURE END LIST*
D10*
%TO.C,H3*%
X171100000Y-92400000D03*
%TD*%
D11*
%TO.C,C4*%
X159867500Y-102960000D03*
X161767500Y-102960000D03*
%TD*%
D12*
%TO.C,U2*%
X133250000Y-99400000D03*
X133250000Y-100670000D03*
X133250000Y-101940000D03*
X133250000Y-103210000D03*
X138200000Y-103210000D03*
X138200000Y-101940000D03*
X138200000Y-100670000D03*
X138200000Y-99400000D03*
%TD*%
D13*
%TO.C,J4*%
X168660000Y-96800000D03*
D14*
X171200000Y-96800000D03*
X168660000Y-99340000D03*
X171200000Y-99340000D03*
X168660000Y-101880000D03*
X171200000Y-101880000D03*
%TD*%
D15*
%TO.C,Y1*%
X127800000Y-111800000D03*
X127800000Y-106600000D03*
%TD*%
D16*
%TO.C,R7*%
X155475000Y-111600000D03*
X157300000Y-111600000D03*
%TD*%
D11*
%TO.C,C2*%
X144700000Y-112500000D03*
X146600000Y-112500000D03*
%TD*%
D16*
%TO.C,R3*%
X155475000Y-99800000D03*
X157300000Y-99800000D03*
%TD*%
%TO.C,R2*%
X155475000Y-96850000D03*
X157300000Y-96850000D03*
%TD*%
D12*
%TO.C,U1*%
X133250000Y-92660000D03*
X133250000Y-93930000D03*
X133250000Y-95200000D03*
X133250000Y-96470000D03*
X138200000Y-96470000D03*
X138200000Y-95200000D03*
X138200000Y-93930000D03*
X138200000Y-92660000D03*
%TD*%
D13*
%TO.C,J2*%
X157290000Y-116700000D03*
D14*
X159830000Y-116700000D03*
X162370000Y-116700000D03*
X164910000Y-116700000D03*
%TD*%
D10*
%TO.C,H2*%
X125900000Y-93900000D03*
%TD*%
D16*
%TO.C,R1*%
X155475000Y-93900000D03*
X157300000Y-93900000D03*
%TD*%
D17*
%TO.C,U4*%
X144330000Y-102200000D03*
X144330000Y-103000000D03*
X144330000Y-103800000D03*
X144330000Y-104600000D03*
X144330000Y-105400000D03*
X144330000Y-106200000D03*
X144330000Y-107000000D03*
X144330000Y-107800000D03*
D18*
X145700000Y-109170000D03*
X146500000Y-109170000D03*
X147300000Y-109170000D03*
X148100000Y-109170000D03*
X148900000Y-109170000D03*
X149700000Y-109170000D03*
X150500000Y-109170000D03*
X151300000Y-109170000D03*
D17*
X152670000Y-107800000D03*
X152670000Y-107000000D03*
X152670000Y-106200000D03*
X152670000Y-105400000D03*
X152670000Y-104600000D03*
X152670000Y-103800000D03*
X152670000Y-103000000D03*
X152670000Y-102200000D03*
D18*
X151300000Y-100830000D03*
X150500000Y-100830000D03*
X149700000Y-100830000D03*
X148900000Y-100830000D03*
X148100000Y-100830000D03*
X147300000Y-100830000D03*
X146500000Y-100830000D03*
X145700000Y-100830000D03*
%TD*%
D19*
%TO.C,Y2*%
X145800000Y-96100000D03*
X151000000Y-96100000D03*
%TD*%
D20*
%TO.C,U3*%
X133100000Y-106030000D03*
X133100000Y-107300000D03*
X133100000Y-108570000D03*
X133100000Y-109840000D03*
X138050000Y-109840000D03*
X138050000Y-108570000D03*
X138050000Y-107300000D03*
X138050000Y-106030000D03*
%TD*%
D11*
%TO.C,C1*%
X140700000Y-112500000D03*
X142600000Y-112500000D03*
%TD*%
D16*
%TO.C,R5*%
X155475000Y-105700000D03*
X157300000Y-105700000D03*
%TD*%
D21*
%TO.C,D2*%
X160025000Y-92400000D03*
X161900000Y-92400000D03*
%TD*%
D10*
%TO.C,H4*%
X171100000Y-117500000D03*
%TD*%
D16*
%TO.C,R4*%
X155475000Y-102750000D03*
X157300000Y-102750000D03*
%TD*%
D13*
%TO.C,J1*%
X171300000Y-105590000D03*
D14*
X171300000Y-108130000D03*
X171300000Y-110670000D03*
X171300000Y-113210000D03*
%TD*%
D11*
%TO.C,C3*%
X148600000Y-112500000D03*
X150500000Y-112500000D03*
%TD*%
D16*
%TO.C,R6*%
X155475000Y-108650000D03*
X157300000Y-108650000D03*
%TD*%
D10*
%TO.C,H1*%
X125900000Y-116900000D03*
%TD*%
D11*
%TO.C,C5*%
X159867500Y-105970000D03*
X161767500Y-105970000D03*
%TD*%
D13*
%TO.C,BT1*%
X127900000Y-98160000D03*
D14*
X127900000Y-100700000D03*
%TD*%
D13*
%TO.C,J3*%
X131260000Y-116700000D03*
D14*
X133800000Y-116700000D03*
X136340000Y-116700000D03*
X138880000Y-116700000D03*
X141420000Y-116700000D03*
X143960000Y-116700000D03*
X146500000Y-116700000D03*
X149040000Y-116700000D03*
X151580000Y-116700000D03*
%TD*%
D21*
%TO.C,D1*%
X164325000Y-92300000D03*
X166200000Y-92300000D03*
%TD*%
M02*
